<?xml version="1.0" standalone="no"?>
<!DOCTYPE svg PUBLIC "-//W3C//DTD SVG 20010904//EN"
 "http://www.w3.org/TR/2001/REC-SVG-20010904/DTD/svg10.dtd">
<svg version="1.0" xmlns="http://www.w3.org/2000/svg"
 width="300.000000pt" height="300.000000pt" viewBox="0 0 300.000000 300.000000"
 preserveAspectRatio="xMidYMid meet">
<metadata>
Created by potrace 1.14, written by Peter Selinger 2001-2017
</metadata>
<g transform="translate(0.000000,300.000000) scale(0.100000,-0.100000)"
fill="#000000" stroke="none">
<path d="M1430 2991 c-91 -28 -186 -116 -214 -198 -23 -66 -20 -160 5 -229 17
-44 42 -78 119 -157 l98 -102 -132 -128 c-94 -91 -127 -130 -116 -134 8 -3 36
-27 62 -52 83 -83 98 -197 40 -305 -82 -151 -298 -177 -413 -49 -20 22 -39 46
-42 54 -3 9 -97 -78 -268 -248 -292 -290 -300 -296 -357 -248 -34 29 -42 68
-21 107 10 18 4 28 -49 81 -70 70 -78 69 -118 -18 -80 -171 51 -372 241 -369
97 1 139 27 289 174 l132 130 59 -60 60 -60 -250 -250 c-247 -246 -251 -250
-292 -250 -33 0 -46 5 -62 26 -23 30 -27 65 -10 96 10 18 4 28 -53 85 l-64 64
-26 -38 c-55 -84 -63 -175 -24 -258 47 -103 127 -155 236 -155 110 0 127 13
412 298 l258 257 62 -63 63 -62 -257 -258 c-285 -285 -298 -302 -298 -412 0
-109 52 -189 155 -236 83 -39 174 -31 258 24 l38 26 -64 64 c-57 57 -67 63
-85 53 -31 -17 -66 -13 -96 10 -21 16 -26 29 -26 62 0 41 4 45 250 292 l250
250 60 -60 60 -59 -130 -132 c-147 -150 -173 -192 -174 -289 -3 -190 198 -321
369 -241 87 40 88 48 18 118 -53 53 -63 59 -81 49 -39 -21 -78 -13 -107 21
-48 57 -42 65 250 358 l265 265 -35 19 c-102 55 -145 206 -91 321 45 98 138
152 249 143 88 -7 137 -36 195 -113 l22 -30 128 131 128 131 101 -98 c79 -76
113 -101 157 -118 69 -25 163 -28 229 -5 61 21 141 94 174 158 50 99 49 109
-92 772 -70 329 -128 600 -129 600 0 1 -268 58 -594 128 -572 121 -660 136
-722 117z"/>
<path d="M1005 1875 c-18 -17 -25 -35 -25 -63 0 -96 133 -122 169 -33 37 88
-77 164 -144 96z"/>
<path d="M1751 1134 c-51 -43 -41 -118 20 -150 77 -39 159 39 125 119 -26 62
-92 76 -145 31z"/>
</g>
</svg>
